<svg xmlns="http://www.w3.org/2000/svg" viewBox="0 0 24 24"><path fill="#303C42" d="M22 3H2C.897 3 0 3.897 0 5v14c0 1.103.897 2 2 2h20c1.103 0 2-.897 2-2V5c0-1.103-.897-2-2-2z"/><path fill="#57C1EF" d="M1 5c0-.551.449-1 1-1h20c.551 0 1 .449 1 1v12.293l-7.646-7.647a.5.5 0 00-.708 0L8.5 15.793l-2.146-2.147a.5.5 0 00-.708 0L1 18.293V5z"/><path fill="#7CB342" d="M22 20H2a.984.984 0 01-.825-.468L6 14.707l3.146 3.147a.5.5 0 10.708-.708l-.647-.646L15 10.707l8 8V19c0 .551-.449 1-1 1z"/><path opacity=".1" fill="#010101" d="M22.637 18.344a.983.983 0 01-.812.449H1.915l-.74.739A.984.984 0 002 20h20c.551 0 1-.449 1-1v-.293l-.363-.363z"/><circle fill="#303C42" cx="8" cy="9" r="3"/><circle fill="#FFCB29" cx="8" cy="9" r="2"/><path opacity=".1" fill="#010101" d="M14.98 10.728l2.302 2.26L15 10.708z"/><linearGradient id="a" gradientUnits="userSpaceOnUse" x1="-.708" y1="6.074" x2="24.708" y2="17.926"><stop offset="0" stop-color="#fff" stop-opacity=".2"/><stop offset="1" stop-color="#fff" stop-opacity="0"/></linearGradient><path fill="url(#a)" d="M22 3H2C.897 3 0 3.897 0 5v14c0 1.103.897 2 2 2h20c1.103 0 2-.897 2-2V5c0-1.103-.897-2-2-2z"/></svg>