<svg viewBox="0 0 512 512" fill="#747887" xmlns="http://www.w3.org/2000/svg"><path d="M363.5 352.446L291.038 186.88a7.754 7.754 0 00-1.41-3.22l-14.945-34.15a30.796 30.796 0 10-39.77 0l-88.988 203.32a32.26 32.26 0 1026.792 56.346 32.262 32.262 0 0041.642 0 32.261 32.261 0 0041.642 0 32.261 32.261 0 0041.642 0 32.262 32.262 0 0041.642 0 32.263 32.263 0 1024.217-56.729zM215.574 233.601l63.569-33.995 18.495 42.26-111.864 59.822zm-40.167 91.776l128.666-68.809 18.35 41.928-110.85 59.28a32.262 32.262 0 00-38.856 2.11 32 32 0 00-9.906-5.73zm171.735 29.598a32.063 32.063 0 00-7.857 4.91 32.26 32.26 0 00-41.642 0 32.258 32.258 0 00-41.642 0 32.14 32.14 0 00-6.474-4.261l79.331-42.425zm-92.345-198.177a30.952 30.952 0 005.4-.481l12.51 28.586-46.765 25.01 23.457-53.596a30.945 30.945 0 005.399.481z"/></svg>