<svg viewBox="0 0 128 128" xmlns="http://www.w3.org/2000/svg"><g fill="#747887"><circle cx="64" cy="115" r="3"/><path d="M91 29c0-9.6-5.2-18.6-13.5-23.4l-.5-.2h-3.5v22.7c-5.6 4.3-13.4 4.3-19 0V5.4H51l-.5.3C42.2 10.4 37 19.4 37 29v1.8c0 .3 0 .5.1.8 0 .2 0 .4.1.6 0 .2.1.5.1.7 0 .2.1.4.1.7 0 .2.1.4.1.6 0 .2.1.5.2.7 0 .2.1.4.1.6.1.2.1.5.2.7 0 .2.1.3.1.5.1.3.2.5.2.8 0 .1.1.3.1.4.1.3.2.6.3.8 0 .1.1.2.1.3.1.3.3.6.4.9 0 .1.1.1.1.2.2.4.3.7.5 1.1 1.4 2.7 3.2 5.1 5.4 7.2l1.2 1.3c3.8 3.9 6.4 14.1 6.4 20.8V115c0 6.1 4.9 11 11 11s11-4.9 11-11V70.6c0-6.7 2.6-16.9 6.4-20.8l1.2-1.3c2.2-2.1 4-4.5 5.4-7.2.2-.3.4-.7.5-1.1 0-.1.1-.1.1-.2.1-.3.3-.6.4-.9 0-.1.1-.2.1-.3.1-.3.2-.6.3-.8.1-.1.1-.3.2-.4.1-.3.2-.5.2-.8.1-.2.1-.3.1-.5.1-.2.1-.5.2-.7 0-.2.1-.4.1-.6.1-.2.1-.5.2-.7 0-.2.1-.4.1-.6 0-.2.1-.4.1-.7 0-.2.1-.5.1-.7 0-.2.1-.4.1-.6 0-.3 0-.5.1-.8v-.5c.3-.5.3-1 .3-1.4zM50.5 10.4v19.5l.7.6c3.7 3.2 8.2 4.8 12.8 4.8 4.6 0 9.1-1.6 12.8-4.7l.7-.6V10.4C83.4 14.7 87 21.6 87 29c0 .7 0 1.4-.1 2.1v.1c-.1.7-.2 1.4-.3 2v.2c-.1.7-.3 1.3-.5 2v.1c-.2.7-.4 1.3-.7 2v.1c-1.1 2.7-2.7 5.1-4.7 7.3l-.9.9C75.6 49.6 70.1 52 64 52c-6.1 0-11.6-2.4-15.7-6.2l-.9-.9c-2-2.1-3.6-4.6-4.7-7.3v-.1c-.3-.6-.5-1.3-.7-2v-.1c-.2-.6-.3-1.3-.5-2v-.2c-.1-.7-.2-1.3-.3-2v-.1c-.2-.7-.2-1.4-.2-2.1 0-7.4 3.6-14.3 9.5-18.6zM71 70.6V115c0 3.9-3.1 7-7 7s-7-3.1-7-7V70.6c0-4.3-1.1-11.1-3.4-16.7C56.8 55.3 60.3 56 64 56s7.2-.7 10.4-2.1C72.1 59.5 71 66.4 71 70.6z"/></g></svg>