<?xml version="1.0" ?><!DOCTYPE svg  PUBLIC '-//W3C//DTD SVG 1.1//EN'  'http://www.w3.org/Graphics/SVG/1.1/DTD/svg11.dtd'><svg enable-background="new 0 0 128 128" id="Слой_1" version="1.1" viewBox="0 0 128 128" xml:space="preserve" xmlns="http://www.w3.org/2000/svg" xmlns:xlink="http://www.w3.org/1999/xlink"><g><g><circle cx="64" cy="115" fill="#747887" r="3"/><path d="M91,29c0-9.6-5.2-18.6-13.5-23.4L77,5.4h-3.5v22.7c-5.6,4.3-13.4,4.3-19,0V5.4H51l-0.5,0.3    C42.2,10.4,37,19.4,37,29c0,0,0,0,0,0l0,0c0,0.4,0,0.9,0,1.3c0,0.2,0,0.3,0,0.5c0,0.3,0,0.5,0.1,0.8c0,0.2,0,0.4,0.1,0.6    c0,0.2,0.1,0.5,0.1,0.7c0,0.2,0.1,0.4,0.1,0.7c0,0.2,0.1,0.4,0.1,0.6c0,0.2,0.1,0.5,0.2,0.7c0,0.2,0.1,0.4,0.1,0.6    c0.1,0.2,0.1,0.5,0.2,0.7c0,0.2,0.1,0.3,0.1,0.5c0.1,0.3,0.2,0.5,0.2,0.8c0,0.1,0.1,0.3,0.1,0.4c0.1,0.3,0.2,0.6,0.3,0.8    c0,0.1,0.1,0.2,0.1,0.3c0.1,0.3,0.3,0.6,0.4,0.9c0,0.1,0.1,0.1,0.1,0.2c0.2,0.4,0.3,0.7,0.5,1.1c0,0,0,0,0,0    c1.4,2.7,3.2,5.1,5.4,7.2l1.2,1.3c3.8,3.9,6.4,14.1,6.4,20.8V115c0,6.1,4.9,11,11,11s11-4.9,11-11V70.6c0-6.7,2.6-16.9,6.4-20.8    l1.2-1.3c2.2-2.1,4-4.5,5.4-7.2c0,0,0,0,0,0c0.2-0.3,0.4-0.7,0.5-1.1c0-0.1,0.1-0.1,0.1-0.2c0.1-0.3,0.3-0.6,0.4-0.9    c0-0.1,0.1-0.2,0.1-0.3c0.1-0.3,0.2-0.6,0.3-0.8c0.1-0.1,0.1-0.3,0.2-0.4c0.1-0.3,0.2-0.5,0.2-0.8c0.1-0.2,0.1-0.3,0.1-0.5    c0.1-0.2,0.1-0.5,0.2-0.7c0-0.2,0.1-0.4,0.1-0.6c0.1-0.2,0.1-0.5,0.2-0.7c0-0.2,0.1-0.4,0.1-0.6c0-0.2,0.1-0.4,0.1-0.7    c0-0.2,0.1-0.5,0.1-0.7c0-0.2,0.1-0.4,0.1-0.6c0-0.3,0-0.5,0.1-0.8c0-0.2,0-0.3,0-0.5C91,29.9,91,29.4,91,29L91,29    C91,29,91,29,91,29C91,29,91,29,91,29L91,29L91,29z M50.5,10.4v19.5l0.7,0.6c3.7,3.2,8.2,4.8,12.8,4.8c4.6,0,9.1-1.6,12.8-4.7    l0.7-0.6V10.4C83.4,14.7,87,21.6,87,29c0,0.7,0,1.4-0.1,2.1c0,0,0,0.1,0,0.1c-0.1,0.7-0.2,1.4-0.3,2c0,0.1,0,0.1,0,0.2    c-0.1,0.7-0.3,1.3-0.5,2c0,0,0,0.1,0,0.1c-0.2,0.7-0.4,1.3-0.7,2c0,0,0,0,0,0.1c-1.1,2.7-2.7,5.1-4.7,7.3l-0.9,0.9    C75.6,49.6,70.1,52,64,52c-6.1,0-11.6-2.4-15.7-6.2l-0.9-0.9c-2-2.1-3.6-4.6-4.7-7.3c0,0,0,0,0-0.1c-0.3-0.6-0.5-1.3-0.7-2    c0,0,0-0.1,0-0.1c-0.2-0.6-0.3-1.3-0.5-2c0-0.1,0-0.1,0-0.2c-0.1-0.7-0.2-1.3-0.3-2c0,0,0-0.1,0-0.1C41,30.4,41,29.7,41,29    C41,21.6,44.6,14.7,50.5,10.4z M71,70.6V115c0,3.9-3.1,7-7,7s-7-3.1-7-7V70.6c0-4.3-1.1-11.1-3.4-16.7C56.8,55.3,60.3,56,64,56    s7.2-0.7,10.4-2.1C72.1,59.5,71,66.4,71,70.6z" fill="#747887"/></g></g></svg>